# Blender v2.93.3 OBJ File: ''
# www.blender.org
o axis
v 10.184000 -0.360000 0.047999
v 9.092000 -0.360000 -1.268001
v 9.568000 -0.360000 -1.268001
v 10.424000 -0.360000 -0.228002
v 11.276000 -0.360000 -1.268002
v 11.748000 -0.360000 -1.268002
v 10.660000 -0.360000 0.047998
v 9.008000 -0.360000 1.459999
v 10.424000 -0.360000 0.331998
v 11.824000 -0.360000 1.459998
v 9.484000 -0.360000 1.459999
v 11.352000 -0.360000 1.459998
v 10.184000 0.373033 0.047998
v 9.568000 0.373033 -1.268002
v 9.092000 0.373033 -1.268001
v 10.424000 0.373033 -0.228002
v 11.748000 0.373033 -1.268002
v 11.276000 0.373033 -1.268002
v 10.660000 0.373033 0.047998
v 9.008000 0.373033 1.459999
v 10.424000 0.373033 0.331998
v 11.824000 0.373033 1.459998
v 9.484000 0.373033 1.459998
v 11.352000 0.373033 1.459998
v -1.008002 -0.380002 -11.376000
v -1.008002 -0.380002 -11.728000
v 1.343998 -0.380002 -11.728000
v 0.619998 -0.380002 -11.376000
v -0.392001 -0.380002 -9.352000
v -1.116001 -0.380001 -9.000000
v 1.343999 -0.380002 -9.352000
v 1.343999 -0.380001 -9.000000
v -1.008002 0.384921 -11.376000
v 1.343998 0.384921 -11.728000
v -1.008002 0.384921 -11.728000
v 0.619998 0.384921 -11.376000
v -0.392001 0.384921 -9.352000
v -1.116001 0.384922 -9.000000
v 1.343999 0.384921 -9.352000
v 1.343999 0.384922 -9.000000
v 0.250000 10.444000 0.087998
v 0.250000 11.728000 0.627998
v 0.250000 11.728000 1.099998
v 0.250000 10.788000 -0.104002
v 0.250000 11.728000 -1.316002
v 0.250000 11.728000 -0.844002
v 0.250000 10.440000 -0.304002
v 0.250000 9.000000 0.087998
v 0.250000 9.000000 -0.304001
v -0.304321 10.444000 0.087998
v -0.304321 11.728000 1.099998
v -0.304321 11.728000 0.627998
v -0.304321 10.788000 -0.104002
v -0.304321 11.728000 -0.844002
v -0.304321 11.728000 -1.316002
v -0.304321 10.440000 -0.304002
v -0.304321 9.000000 0.087999
v -0.304321 9.000000 -0.304001
v -0.500000 0.500000 0.500000
v -0.500000 -0.500000 -0.500000
v -0.500000 -0.500000 0.500000
v 0.500000 -0.500000 -0.500000
v 0.499999 0.499999 -8.500000
v 0.500000 0.500000 -0.500000
v 8.500000 -0.500000 -0.500001
v 0.500000 0.500000 0.500000
v 0.500000 -0.500000 0.500000
v -0.500000 8.500000 -0.500001
v -0.500000 0.500000 -0.500000
v 8.500000 0.500000 -0.500001
v 8.500000 -0.500000 0.499999
v 8.500000 0.500000 0.499999
v 0.500000 8.500000 0.499999
v 0.500000 8.500000 -0.500001
v -0.500000 8.500000 0.499999
v -0.500001 0.499999 -8.500000
v 0.499999 -0.500001 -8.500000
v -0.500001 -0.500001 -8.500000
vn 0.0000 -1.0000 0.0000
vn -0.0000 1.0000 -0.0000
vn -0.7696 -0.0000 0.6386
vn 0.7682 -0.0000 0.6402
vn -0.7722 -0.0000 0.6353
vn -0.7684 -0.0000 -0.6400
vn 0.7707 -0.0000 0.6372
vn 0.0000 0.0000 1.0000
vn 0.0000 -0.0000 -1.0000
vn 0.7721 -0.0000 -0.6355
vn -0.7736 0.0000 -0.6337
vn 0.7716 -0.0000 -0.6361
vn 1.0000 0.0000 -0.0000
vn -1.0000 0.0000 0.0000
vn -0.8074 0.0000 -0.5899
vn 0.8074 0.0000 0.5899
vn 0.0000 0.6186 0.7857
vn -0.0000 0.6144 -0.7890
vn 0.0000 -0.6178 -0.7863
vn 0.0000 -0.6190 0.7854
s off
f 1//1 2//1 3//1
f 1//1 3//1 4//1
f 4//1 5//1 6//1
f 4//1 6//1 7//1
f 1//1 4//1 7//1
f 8//1 1//1 7//1
f 8//1 7//1 9//1
f 9//1 7//1 10//1
f 8//1 9//1 11//1
f 12//1 9//1 10//1
f 13//2 14//2 15//2
f 13//2 16//2 14//2
f 16//2 17//2 18//2
f 16//2 19//2 17//2
f 13//2 19//2 16//2
f 20//2 19//2 13//2
f 20//2 21//2 19//2
f 21//2 22//2 19//2
f 20//2 23//2 21//2
f 24//2 22//2 21//2
f 1//3 15//3 2//3
f 9//4 23//4 11//4
f 12//5 21//5 9//5
f 8//6 13//6 1//6
f 6//7 19//7 7//7
f 10//8 24//8 12//8
f 5//9 17//9 6//9
f 2//9 14//9 3//9
f 3//10 16//10 4//10
f 4//11 18//11 5//11
f 11//8 20//8 8//8
f 7//12 22//12 10//12
f 25//1 26//1 27//1
f 25//1 27//1 28//1
f 28//1 27//1 29//1
f 30//1 28//1 29//1
f 30//1 29//1 31//1
f 30//1 31//1 32//1
f 33//2 34//2 35//2
f 33//2 36//2 34//2
f 36//2 37//2 34//2
f 38//2 37//2 36//2
f 38//2 39//2 37//2
f 38//2 40//2 39//2
f 31//13 40//13 32//13
f 28//8 33//8 25//8
f 25//14 35//14 26//14
f 30//15 36//15 28//15
f 29//9 39//9 31//9
f 27//16 37//16 29//16
f 32//8 38//8 30//8
f 26//9 34//9 27//9
f 41//13 42//13 43//13
f 41//13 44//13 42//13
f 44//13 45//13 46//13
f 44//13 47//13 45//13
f 41//13 47//13 44//13
f 48//13 47//13 41//13
f 48//13 49//13 47//13
f 50//14 51//14 52//14
f 50//14 52//14 53//14
f 53//14 54//14 55//14
f 53//14 55//14 56//14
f 50//14 53//14 56//14
f 57//14 50//14 56//14
f 57//14 56//14 58//14
f 54//17 44//17 46//17
f 57//1 49//1 48//1
f 53//18 42//18 44//18
f 55//2 46//2 45//2
f 58//9 47//9 49//9
f 56//19 45//19 47//19
f 52//2 43//2 42//2
f 51//20 41//20 43//20
f 50//8 48//8 41//8
f 59//14 60//14 61//14
f 62//13 63//13 64//13
f 64//9 65//9 62//9
f 66//8 61//8 67//8
f 62//1 61//1 60//1
f 59//14 68//14 69//14
f 70//13 71//13 65//13
f 67//8 72//8 66//8
f 62//1 71//1 67//1
f 66//2 70//2 64//2
f 68//2 73//2 74//2
f 66//8 75//8 59//8
f 69//9 74//9 64//9
f 64//13 73//13 66//13
f 76//9 77//9 78//9
f 60//1 77//1 62//1
f 64//2 76//2 69//2
f 69//14 78//14 60//14
f 1//3 13//3 15//3
f 9//4 21//4 23//4
f 12//5 24//5 21//5
f 8//6 20//6 13//6
f 6//7 17//7 19//7
f 10//8 22//8 24//8
f 5//9 18//9 17//9
f 2//9 15//9 14//9
f 3//10 14//10 16//10
f 4//11 16//11 18//11
f 11//8 23//8 20//8
f 7//12 19//12 22//12
f 31//13 39//13 40//13
f 28//8 36//8 33//8
f 25//14 33//14 35//14
f 30//15 38//15 36//15
f 29//9 37//9 39//9
f 27//16 34//16 37//16
f 32//8 40//8 38//8
f 26//9 35//9 34//9
f 54//17 53//17 44//17
f 57//1 58//1 49//1
f 53//18 52//18 42//18
f 55//2 54//2 46//2
f 58//9 56//9 47//9
f 56//19 55//19 45//19
f 52//2 51//2 43//2
f 51//20 50//20 41//20
f 50//8 57//8 48//8
f 59//14 69//14 60//14
f 62//13 77//13 63//13
f 64//9 70//9 65//9
f 66//8 59//8 61//8
f 62//1 67//1 61//1
f 59//14 75//14 68//14
f 70//13 72//13 71//13
f 67//8 71//8 72//8
f 62//1 65//1 71//1
f 66//2 72//2 70//2
f 68//2 75//2 73//2
f 66//8 73//8 75//8
f 69//9 68//9 74//9
f 64//13 74//13 73//13
f 76//9 63//9 77//9
f 60//1 78//1 77//1
f 64//2 63//2 76//2
f 69//14 76//14 78//14
